<svg width="16px" height="12px" fill="currentColor" viewBox="0 0 24 18">
  <path d="M20.7273 2.18182C20.7273 2.18182 18.2264 0.224727 15.2727 0L15.0065 0.532364C17.6771 1.18582 18.9022 2.12236 20.1818 3.27273C17.9755 2.14636 15.7969 1.09091 12 1.09091C8.20309 1.09091 6.02455 2.14636 3.81818 3.27273C5.09782 2.12236 6.55527 1.08273 8.99345 0.532364L8.72727 0C5.62855 0.292909 3.27273 2.18182 3.27273 2.18182C3.27273 2.18182 0.479455 6.23182 0 14.1818C2.81564 17.4289 7.09091 17.4545 7.09091 17.4545L7.98491 16.2627C6.46745 15.7353 4.75364 14.7933 3.27273 13.0909C5.03891 14.4273 7.70455 15.8182 12 15.8182C16.2955 15.8182 18.9611 14.4273 20.7273 13.0909C19.2464 14.7933 17.5325 15.7353 16.0151 16.2627L16.9091 17.4545C16.9091 17.4545 21.1844 17.4289 24 14.1818C23.5205 6.23182 20.7273 2.18182 20.7273 2.18182ZM8.45455 12C7.40018 12 6.54545 11.0231 6.54545 9.81818C6.54545 8.61327 7.40018 7.63636 8.45455 7.63636C9.50891 7.63636 10.3636 8.61327 10.3636 9.81818C10.3636 11.0231 9.50891 12 8.45455 12ZM15.5455 12C14.4911 12 13.6364 11.0231 13.6364 9.81818C13.6364 8.61327 14.4911 7.63636 15.5455 7.63636C16.5998 7.63636 17.4545 8.61327 17.4545 9.81818C17.4545 11.0231 16.5998 12 15.5455 12Z" />
</svg>
