<svg width="12" height="12" fill="currentColor" viewBox="0 0 12 12">
  <path d="M6 0C2.6862 0 0 2.6862 0 6C0 8.652 1.722 10.902 4.104 11.7C4.404 11.748 4.5 11.562 4.5 11.4V10.386C2.838 10.746 2.484 9.582 2.484 9.582C2.208 8.886 1.818 8.7 1.818 8.7C1.272 8.328 1.86 8.34 1.86 8.34C2.46 8.382 2.778 8.958 2.778 8.958C3.3 9.87 4.182 9.6 4.524 9.456C4.578 9.066 4.734 8.802 4.902 8.652C3.57 8.502 2.172 7.986 2.172 5.7C2.172 5.034 2.4 4.5 2.79 4.074C2.73 3.924 2.52 3.3 2.85 2.49C2.85 2.49 3.354 2.328 4.5 3.102C4.974 2.97 5.49 2.904 6 2.904C6.51 2.904 7.026 2.97 7.5 3.102C8.646 2.328 9.15 2.49 9.15 2.49C9.48 3.3 9.27 3.924 9.21 4.074C9.6 4.5 9.828 5.034 9.828 5.7C9.828 7.992 8.424 8.496 7.086 8.646C7.302 8.832 7.5 9.198 7.5 9.756V11.4C7.5 11.562 7.596 11.754 7.902 11.7C10.284 10.896 12 8.652 12 6C12 5.21207 11.8448 4.43185 11.5433 3.7039C11.2417 2.97595 10.7998 2.31451 10.2426 1.75736C9.68549 1.20021 9.02405 0.758251 8.2961 0.456723C7.56815 0.155195 6.78793 0 6 0Z" />
</svg>
