<svg width="19" height="19" fill="currentColor" viewBox="0 0 19 19">
  <path fill-rule="evenodd" d="M13.76 -0.00683594H5.24001C3.84879 -0.00472225 2.51511 0.548668 1.53109 1.53213C0.547067 2.51559 -0.00708561 3.84895 -0.00999451 5.24016V13.7602C-0.00708561 15.1514 0.547067 16.4847 1.53109 17.4682C2.51511 18.4517 3.84879 19.0051 5.24001 19.0072H13.76C15.1512 19.0051 16.4849 18.4517 17.4689 17.4682C18.4529 16.4847 19.0071 15.1514 19.01 13.7602V5.24016C19.0071 3.84895 18.4529 2.51559 17.4689 1.53213C16.4849 0.548668 15.1512 -0.00472225 13.76 -0.00683594ZM17 14.0002C17.0517 14.4064 17.0096 14.8191 16.8771 15.2066C16.7446 15.5941 16.5252 15.9462 16.2356 16.2358C15.946 16.5253 15.594 16.7448 15.2065 16.8773C14.819 17.0098 14.4063 17.0518 14 17.0002H5.00001C4.59374 17.0518 4.18104 17.0098 3.79354 16.8773C3.40603 16.7448 3.05399 16.5253 2.76441 16.2358C2.47482 15.9462 2.25537 15.5941 2.12288 15.2066C1.99038 14.8191 1.94835 14.4064 2.00001 14.0002V5.00016C1.94835 4.5939 1.99038 4.1812 2.12288 3.79369C2.25537 3.40619 2.47482 3.05415 2.76441 2.76457C3.05399 2.47498 3.40603 2.25553 3.79354 2.12303C4.18104 1.99054 4.59374 1.94851 5.00001 2.00016H14C14.4063 1.94851 14.819 1.99054 15.2065 2.12303C15.594 2.25553 15.946 2.47498 16.2356 2.76457C16.5252 3.05415 16.7446 3.40619 16.8771 3.79369C17.0096 4.1812 17.0517 4.5939 17 5.00016V14.0002ZM9.50001 4.60016C8.53088 4.60016 7.58351 4.88754 6.77771 5.42596C5.97191 5.96438 5.34387 6.72966 4.973 7.62502C4.60213 8.52037 4.50509 9.5056 4.69416 10.4561C4.88323 11.4066 5.34991 12.2797 6.03518 12.965C6.72046 13.6503 7.59356 14.1169 8.54406 14.306C9.49457 14.4951 10.4798 14.398 11.3752 14.0272C12.2705 13.6563 13.0358 13.0283 13.5742 12.2225C14.1126 11.4167 14.4 10.4693 14.4 9.50016C14.3984 8.20109 13.8817 6.95568 12.9631 6.03709C12.0445 5.11851 10.7991 4.60175 9.50001 4.60016ZM9.50001 12.7112C8.86465 12.7116 8.24344 12.5235 7.71497 12.1708C7.1865 11.8181 6.77449 11.3166 6.53108 10.7297C6.28766 10.1428 6.22377 9.49696 6.34748 8.87376C6.47119 8.25056 6.77694 7.67805 7.22607 7.22865C7.6752 6.77924 8.24752 6.47313 8.87064 6.34903C9.49376 6.22493 10.1397 6.28842 10.7267 6.53147C11.3138 6.77452 11.8155 7.18621 12.1685 7.71446C12.5216 8.24272 12.71 8.8638 12.71 9.49916C12.7095 10.3506 12.3712 11.1671 11.7694 11.7695C11.1676 12.3718 10.3515 12.7108 9.50001 12.7122V12.7112ZM14.6 3.16916C14.3151 3.17084 14.0396 3.27112 13.8203 3.45296C13.601 3.6348 13.4514 3.88698 13.397 4.16663C13.3425 4.44628 13.3866 4.73615 13.5218 4.98696C13.6569 5.23777 13.8747 5.43405 14.1382 5.54243C14.4017 5.65082 14.6945 5.66462 14.967 5.58149C15.2395 5.49836 15.4748 5.32343 15.6329 5.08643C15.7911 4.84944 15.8622 4.565 15.8343 4.28147C15.8065 3.99794 15.6813 3.73282 15.48 3.53116C15.246 3.2991 14.9296 3.16929 14.6 3.17016V3.16916Z" />
</svg>
