<svg width="16" height="15" fill="currentColor" viewBox="0 0 16 15">
  <path d="M14.2166 5.74435C13.7113 5.74435 13.2666 5.95239 12.9393 6.27652C11.736 5.44956 10.1133 4.91739 8.3153 4.86065L9.24929 0.682826L12.2233 1.34543C12.2233 2.06804 12.8166 2.65826 13.5446 2.65826C14.2866 2.65826 14.8833 2.05239 14.8833 1.32913C14.8833 0.60587 14.2906 0 13.5453 0C13.026 0 12.578 0.311087 12.3546 0.736304L9.06996 0.0136957C8.90463 -0.03 8.74263 0.0873913 8.69863 0.251739L7.6733 4.85739C5.8893 4.93109 4.28397 5.46261 3.07664 6.29022C2.7493 5.95239 2.2873 5.74435 1.78197 5.74435C-0.0926916 5.74435 -0.706691 8.24152 1.00997 9.09522C0.949307 9.35935 0.921973 9.64109 0.921973 9.92217C0.921973 12.7272 4.1053 15 8.01396 15C11.9393 15 15.1226 12.7272 15.1226 9.92217C15.1226 9.64109 15.0926 9.3463 15.0186 9.08152C16.7006 8.22457 16.0813 5.74565 14.2166 5.74435ZM3.73397 9.27261C3.73397 8.5363 4.3273 7.94348 5.07263 7.94348C5.80063 7.94348 6.39463 8.53239 6.39463 9.27261C6.39463 9.99587 5.8013 10.5854 5.07263 10.5854C4.33064 10.5887 3.73397 9.99587 3.73397 9.27261ZM10.96 12.4017C9.73263 13.62 6.2693 13.62 5.0413 12.4017C4.90597 12.2843 4.90597 12.077 5.0413 11.9433C5.1593 11.8259 5.36863 11.8259 5.48663 11.9433C6.42396 12.8974 9.53329 12.9137 10.5113 11.9433C10.6293 11.8259 10.8386 11.8259 10.9566 11.9433C11.0946 12.0776 11.0946 12.285 10.96 12.4017ZM10.9326 10.588C10.2046 10.588 9.61129 9.99913 9.61129 9.27652C9.61129 8.54022 10.2046 7.94739 10.9326 7.94739C11.6746 7.94739 12.2713 8.5363 12.2713 9.27652C12.268 9.99587 11.6746 10.588 10.9326 10.588Z" />
</svg>
