<svg width="94" height="11" fill="currentColor" viewBox="0 0 94 11" xmlns="http://www.w3.org/2000/svg">
  <path d="M11.92 0.199998L7.72 10H4.99L0.804001 0.199998H3.8L6.46 6.584L9.176 0.199998H11.92Z" />
  <path d="M12.4937 0.199998H15.2657V10H12.4937V0.199998Z" />
  <path d="M17.2378 0.199998H21.8718C22.9451 0.199998 23.8971 0.400665 24.7278 0.801998C25.5585 1.20333 26.2025 1.77266 26.6598 2.51C27.1171 3.24733 27.3458 4.11066 27.3458 5.1C27.3458 6.08933 27.1171 6.95266 26.6598 7.69C26.2025 8.42733 25.5585 8.99667 24.7278 9.398C23.8971 9.79933 22.9451 10 21.8718 10H17.2378V0.199998ZM21.7598 7.788C22.5998 7.788 23.2718 7.55 23.7758 7.074C24.2891 6.598 24.5458 5.94 24.5458 5.1C24.5458 4.26 24.2891 3.602 23.7758 3.126C23.2718 2.65 22.5998 2.412 21.7598 2.412H20.0098V7.788H21.7598Z" />
  <path d="M36.6722 7.858V10H28.8042V0.199998H36.4902V2.342H31.5482V3.994H35.9022V6.066H31.5482V7.858H36.6722Z" />
  <path d="M42.4945 7.396H40.9825V10H38.2105V0.199998H42.6905C43.5771 0.199998 44.3471 0.349331 45.0005 0.647998C45.6538 0.937331 46.1578 1.35733 46.5125 1.908C46.8671 2.44933 47.0445 3.08866 47.0445 3.826C47.0445 4.53533 46.8765 5.156 46.5405 5.688C46.2138 6.21066 45.7425 6.62133 45.1265 6.92L47.2405 10H44.2725L42.4945 7.396ZM44.2445 3.826C44.2445 3.36867 44.0998 3.014 43.8105 2.762C43.5211 2.51 43.0918 2.384 42.5225 2.384H40.9825V5.254H42.5225C43.0918 5.254 43.5211 5.13267 43.8105 4.89C44.0998 4.638 44.2445 4.28333 44.2445 3.826Z" />
  <path d="M56.4417 7.858V10H48.5737V0.199998H56.2598V2.342H51.3177V3.994H55.6718V6.066H51.3177V7.858H56.4417Z" />
  <path d="M70.9022 10L70.8742 4.806L68.3542 9.034H67.1222L64.6162 4.946V10H62.0542V0.199998H64.3362L67.7802 5.856L71.1402 0.199998H73.4222L73.4502 10H70.9022Z" />
  <path d="M77.4976 2.398H74.4876V0.199998H83.2656V2.398H80.2696V10H77.4976V2.398Z" />
  <path d="M90.7276 4.89H93.1776V8.95C92.6176 9.35133 91.9736 9.65933 91.2456 9.874C90.5176 10.0887 89.7896 10.196 89.0616 10.196C88.035 10.196 87.111 9.98133 86.2896 9.552C85.4683 9.11333 84.8243 8.50667 84.3576 7.732C83.891 6.95733 83.6576 6.08 83.6576 5.1C83.6576 4.12 83.891 3.24266 84.3576 2.468C84.8243 1.69333 85.473 1.09133 86.3036 0.661998C87.1343 0.223331 88.0723 0.0039978 89.1176 0.0039978C90.0323 0.0039978 90.8536 0.157998 91.5816 0.465998C92.3096 0.773998 92.9163 1.21733 93.4016 1.796L91.6376 3.392C90.975 2.664 90.1816 2.3 89.2576 2.3C88.4176 2.3 87.741 2.55666 87.2276 3.07C86.7143 3.574 86.4576 4.25066 86.4576 5.1C86.4576 5.64133 86.5743 6.12666 86.8076 6.556C87.041 6.976 87.3676 7.30733 87.7876 7.55C88.2076 7.78333 88.6883 7.9 89.2296 7.9C89.7616 7.9 90.261 7.79266 90.7276 7.578V4.89Z" />
</svg>
